<?xml version="1.0" standalone="no"?>
<!DOCTYPE svg PUBLIC "-//W3C//DTD SVG 20010904//EN"
 "http://www.w3.org/TR/2001/REC-SVG-20010904/DTD/svg10.dtd">
<svg version="1.0" xmlns="http://www.w3.org/2000/svg"
 width="107.000000pt" height="107.000000pt" viewBox="0 0 107.000000 107.000000"
 preserveAspectRatio="xMidYMid meet">
<metadata>
Created by potrace 1.16, written by Peter Selinger 2001-2019
</metadata>
<g transform="translate(0.000000,107.000000) scale(0.100000,-0.100000)"
fill="#CCA15E" stroke="none">
<path d="M242 970 c-18 -4 -36 -10 -39 -14 -9 -9 186 -98 199 -90 7 5 8 2 3
-6 -6 -9 -1 -10 16 -5 16 4 20 3 11 -3 -11 -7 -8 -14 15 -29 15 -11 34 -18 41
-16 7 3 84 -28 172 -68 152 -69 160 -74 160 -101 0 -15 -2 -28 -5 -28 -3 0
-33 9 -67 21 -44 14 -72 18 -102 13 -44 -7 -110 -36 -138 -61 -16 -14 -22 -12
-64 25 -69 62 -137 83 -276 90 l-118 5 0 -308 0 -307 133 4 c126 3 137 5 198
35 36 18 73 41 83 52 18 19 18 19 62 -14 71 -54 159 -70 229 -41 35 15 35 16
35 77 0 54 -2 60 -17 54 -56 -22 -77 -27 -107 -21 -48 9 -82 39 -101 90 -53
138 118 250 214 140 31 -34 31 -36 33 -157 1 -67 2 -140 2 -162 l1 -40 80 -3
79 -3 -24 26 c-25 26 -25 29 -31 263 -3 130 -4 239 -3 241 9 12 56 -13 64 -34
12 -32 34 -32 48 -1 9 20 7 27 -7 40 -10 9 -21 13 -24 10 -4 -4 -14 -1 -23 6
-8 8 -24 14 -35 15 -28 2 -36 14 -43 65 l-6 45 17 -25 c10 -14 24 -26 31 -28
7 -1 -5 25 -28 58 -29 43 -47 60 -63 60 -15 0 -18 -3 -9 -8 10 -7 10 -20 1
-60 -6 -29 -13 -52 -15 -52 -3 0 -57 25 -122 56 -64 31 -168 81 -230 110 -62
30 -111 58 -108 63 5 7 -73 34 -86 30 -2 -1 -18 -5 -36 -9z m134 -51 c15 -5
24 -12 21 -15 -8 -8 -107 37 -107 48 0 5 13 2 30 -7 16 -8 42 -20 56 -26z
m-112 22 c4 -5 -3 -7 -14 -4 -23 6 -26 13 -6 13 8 0 17 -4 20 -9z m171 -51 c3
-5 -1 -10 -9 -10 -9 0 -16 5 -16 10 0 6 4 10 9 10 6 0 13 -4 16 -10z m51 -25
c10 -8 14 -15 8 -15 -5 0 -19 7 -30 15 -10 8 -14 15 -8 15 5 0 19 -7 30 -15z
m-130 -350 c69 -40 91 -122 55 -201 -22 -49 -68 -74 -152 -81 l-59 -6 0 163 0
163 57 -7 c32 -4 76 -18 99 -31z M398 943 c7 -3 16 -2 19 1 4 3 -2 6 -13 5
-11 0 -14 -3 -6 -6z M438 933 c7 -3 16 -2 19 1 4 3 -2 6 -13 5 -11 0 -14 -3
-6 -6z M478 923 c7 -3 16 -2 19 1 4 3 -2 6 -13 5 -11 0 -14 -3 -6 -6z M518
913 c7 -3 16 -2 19 1 4 3 -2 6 -13 5 -11 0 -14 -3 -6 -6z M638 883 c7 -3 16
-2 19 1 4 3 -2 6 -13 5 -11 0 -14 -3 -6 -6z M678 873 c7 -3 16 -2 19 1 4 3 -2
6 -13 5 -11 0 -14 -3 -6 -6z M440 705 c0 -12 6 -27 12 -33 10 -10 10 -15 -1
-21 -10 -6 -10 -10 -1 -16 17 -11 24 2 27 48 3 37 0 43 -17 43 -14 0 -20 -7
-20 -21z M950 706 c0 -2 8 -10 18 -17 15 -13 16 -12 3 4 -13 16 -21 21 -21 13z"/>
</g>
</svg>
